# xmcd CD database file generated by Grip 2.94
# 
# Track frame offsets:
#       150
#       13338
#       28839
#       52050
#       63302
#       80054
#       98853
#       113287
#       129061
#       146539
#       165843
#       182613
#       202552
#       220820
#       235187
#       247699
#       263124
#       282059
# 
# Disc length: 3981 seconds
# 
# Revision: 3
# Processed by: cddbd v1.4b41PL1 Copyright (c) Steve Scherf et al.
# Submitted via: Grip 2.94
# 
DISCID=e40f8b12
DTITLE=Vários - Voz and Guitarra I
DYEAR=1900
DGENRE=
TTITLE0=Tonto - Kalú e Nuno Rafael
TTITLE1=Pedras da Calçada - Paulo Gonzo
TTITLE2=Lisboa que amanhece - Rui Veloso
TTITLE3=Mulher da erva - Sérgio Godinho
TTITLE4=Os melhoreas anos das nossas vidas - Miguel Ângelo
TTITLE5=Praia das lágrimas - Filipa pais
TTITLE6=Por quem eu não esqueci - Tim
TTITLE7=Canção da viela património mundial - Vozes da Rádio
TTITLE8=Terra de Ninguém - Carlos Tê - Rui Veloso - Sérgio Godinho
TTITLE9=Eles compram tudo - Rui Veloso
TTITLE10=O Charlatão - Kalú e Nuno Rafael
TTITLE11=Segredos da cozinha - João Afonso
TTITLE12=Molineira - Né Ladeiras e Pedro Jóia
TTITLE13=Não é fácil o amor - Janita Salomé
TTITLE14=Suborno Passional - João Gil
TTITLE15=Carta a Miguel Djé Djé - João Afonso
TTITLE16=As Asas - Né Ladeiras
TTITLE17=Cantiga Bailada - Minela e Moz Carrapa
EXTD=
EXTT0=
EXTT1=
EXTT2=
EXTT3=
EXTT4=
EXTT5=
EXTT6=
EXTT7=
EXTT8=
EXTT9=
EXTT10=
EXTT11=
EXTT12=
EXTT13=
EXTT14=
EXTT15=
EXTT16=
EXTT17=
PLAYORDER=
